<svg width="24" height="24" viewBox="0 0 24 24" fill="none" xmlns="http://www.w3.org/2000/svg">
<path d="M10 13C10.4295 13.5741 10.9774 14.0492 11.6066 14.3929C12.2357 14.7367 12.9315 14.9411 13.6467 14.9923C14.3618 15.0435 15.0796 14.9404 15.7513 14.6898C16.4231 14.4392 17.0331 14.0471 17.54 13.54L20.54 10.54C21.4508 9.59699 21.9548 8.33397 21.9434 7.02299C21.932 5.71201 21.4061 4.45794 20.4791 3.5309C19.5521 2.60386 18.298 2.07802 16.987 2.06663C15.676 2.05523 14.413 2.55921 13.47 3.47L11.75 5.18" stroke="white" stroke-width="2" stroke-miterlimit="10" stroke-linecap="round"/>
<path d="M13.9436 11.0051C13.5141 10.431 12.9662 9.95593 12.337 9.61217C11.7078 9.26841 11.0121 9.06399 10.2969 9.01277C9.58177 8.96156 8.86397 9.06474 8.19221 9.31533C7.52045 9.56591 6.91044 9.95804 6.40356 10.4651L3.40356 13.4651C2.49277 14.4081 1.9888 15.6711 2.00019 16.9821C2.01158 18.2931 2.53743 19.5472 3.46447 20.4742C4.39151 21.4012 5.64557 21.9271 6.95655 21.9385C8.26754 21.9499 9.53055 21.4459 10.4736 20.5351L12.1836 18.8251" stroke="white" stroke-width="2" stroke-miterlimit="10" stroke-linecap="round"/>
</svg>
