<svg width="54" height="50" viewBox="0 0 54 50" fill="none" xmlns="http://www.w3.org/2000/svg">
<path d="M49.5357 24.4872C49.5357 37.3427 39.0656 47.77 26.1429 47.77C13.2201 47.77 2.75 37.3427 2.75 24.4872C2.75 11.6317 13.2201 1.20435 26.1429 1.20435C39.0656 1.20435 49.5357 11.6317 49.5357 24.4872Z" stroke="#C43C1E" stroke-width="1.5"/>
<line y1="-0.75" x2="47.4508" y2="-0.75" transform="matrix(-0.00294269 0.999996 -0.999996 -0.00292242 25.0759 0.560791)" stroke="#C43C1E" stroke-width="1.5"/>
<line x1="2.12573" y1="23.6917" x2="48.9387" y2="23.6916" stroke="#C43C1E" stroke-width="1.5"/>
<path d="M38.3928 23.8548C38.3928 30.2137 36.9593 35.9335 34.6796 40.0371C32.3857 44.1661 29.3366 46.5052 26.1428 46.5052C22.949 46.5052 19.8999 44.1661 17.6061 40.0371C15.3263 35.9335 13.8928 30.2137 13.8928 23.8548C13.8928 17.4958 15.3263 11.776 17.6061 7.67239C19.8999 3.54341 22.949 1.20435 26.1428 1.20435C29.3366 1.20435 32.3857 3.54341 34.6796 7.67239C36.9593 11.776 38.3928 17.4958 38.3928 23.8548Z" stroke="#C43C1E" stroke-width="1.5"/>
<path d="M8.80951 39.6657C8.80951 39.6657 14.9324 35.5871 26.2937 35.8828C37.6551 36.1784 44.0952 40.2982 44.0952 40.2982" stroke="#C43C1E" stroke-width="1.5"/>
<path d="M8.80951 8.04371C8.80951 8.04371 14.7815 12.7665 26.1428 12.4709C37.5042 12.1752 43.4762 8.04371 43.4762 8.04371" stroke="#C43C1E" stroke-width="1.5"/>
<path d="M41.6191 46.6227L42.8572 49.1524L44.7143 45.9902L41.6191 46.6227Z" fill="#8C8C8C"/>
<path d="M47.8095 45.3579L32.9524 18.1628L44.7143 45.9903L42.8572 49.1526L47.8095 45.3579Z" fill="#AEAEAD"/>
<path d="M32.9524 49.1526V18.1628L54 44.093L45.7295 41.5632L32.9524 18.1628L43.4762 42.8281L32.9524 49.1526Z" fill="white"/>
<path d="M44.7143 45.9903L32.9524 49.1525L43.4762 42.8281L44.7143 45.9903Z" fill="#F0F0F0"/>
<path d="M47.8095 45.3579L45.7295 41.5632L54 44.093L47.8095 45.3579Z" fill="#F0F0F0"/>
</svg>
